# xmcd CD Database Entry
#
# Track frame offsets:
# 150
# 21455
# 41463
# 57680
# 77945
# 92783
# 110861
# 126177
# 144091
# 165358
# 179055
# 191754
# 208523
# 225360
# 243927
# 260034
# 280813
# 291949
# 309780
# 325968
# 340574
#
# Disc length: 4742 seconds
#
# Revision: 1
# Processed by: cddbd v1.5PL3 Copyright (c) Steve Scherf et al.
# Submitted via: tcd 2.0b
#
DISCID=35128415
DTITLE=Desconocido - Desconocido
DYEAR=1900
DGENRE=
TTITLE0=Pista 1
TTITLE1=Pista 2
TTITLE2=Pista 3
TTITLE3=Pista 4
TTITLE4=Pista 5
TTITLE5=Pista 6
TTITLE6=Pista 7
TTITLE7=Pista 8
TTITLE8=Pista 9
TTITLE9=Pista 10
TTITLE10=Pista 11
TTITLE11=Pista 12
TTITLE12=Pista 13
TTITLE13=Pista 14
TTITLE14=Pista 15
TTITLE15=Pista 16
TTITLE16=Pista 17
TTITLE17=Pista 18
TTITLE18=Pista 19
TTITLE19=Pista 20
TTITLE20=Pista 21
EXTD=
EXTT0=
EXTT1=
EXTT2=
EXTT3=
EXTT4=
EXTT5=
EXTT6=
EXTT7=
EXTT8=
EXTT9=
EXTT10=
EXTT11=
EXTT12=
EXTT13=
EXTT14=
EXTT15=
EXTT16=
EXTT17=
EXTT18=
EXTT19=
EXTT20=
PLAYORDER=
